<?xml version="1.0" standalone="no"?>
<!DOCTYPE svg PUBLIC "-//W3C//DTD SVG 20010904//EN"
 "http://www.w3.org/TR/2001/REC-SVG-20010904/DTD/svg10.dtd">
<svg version="1.0" xmlns="http://www.w3.org/2000/svg"
 width="512.000000pt" height="512.000000pt" viewBox="0 0 512.000000 512.000000"
 preserveAspectRatio="xMidYMid meet">
<metadata>
Created by potrace 1.11, written by Peter Selinger 2001-2013
</metadata>
<g transform="translate(0.000000,512.000000) scale(0.100000,-0.100000)"
fill="#000000" stroke="none">
<path d="M968 4469 c-119 -28 -230 -121 -287 -239 l-36 -75 -3 -1555 c-2
-1136 0 -1571 8 -1615 32 -168 169 -305 333 -336 34 -6 623 -8 1613 -7 l1559
3 75 36 c116 56 190 140 229 259 l21 64 -2 1575 -3 1576 -36 75 c-48 99 -111
162 -208 209 l-76 36 -1575 2 c-888 0 -1591 -3 -1612 -8z m3083 -868 c4 -136
3 -251 -4 -251 -5 0 -5 -5 -1 -12 5 -8 10 -2129 5 -2253 -1 -20 -7 -20 -1469
-18 -807 1 -1478 2 -1492 2 l-25 1 0 667 c0 434 4 671 10 675 7 5 7 8 0 8 -7
0 -9 200 -8 582 1 321 2 592 2 604 l1 20 1490 0 1490 0 1 -25z"/>
<path d="M1655 3050 c-129 -129 -147 -151 -135 -164 7 -9 102 -105 212 -214
109 -108 203 -205 209 -215 8 -15 -24 -51 -211 -237 -121 -121 -220 -224 -220
-228 0 -5 16 -23 35 -41 20 -18 32 -37 29 -43 -4 -6 -3 -8 3 -5 6 4 57 -41
114 -98 57 -58 108 -105 114 -105 5 0 178 168 383 373 l372 372 -375 375
c-207 206 -377 376 -378 377 -2 1 -70 -65 -152 -147z"/>
<path d="M2780 2130 c-8 -6 -10 -420 -1 -421 26 -4 835 -3 841 1 4 3 7 99 6
214 l-1 209 -418 1 c-231 1 -422 -1 -427 -4z"/>
</g>
</svg>
